<svg width="20" height="21" viewBox="0 0 20 21" fill="none" xmlns="http://www.w3.org/2000/svg">
<path d="M1 10.3535C1 11.5354 1.23279 12.7057 1.68508 13.7977C2.13738 14.8896 2.80031 15.8817 3.63604 16.7175C4.47177 17.5532 5.46392 18.2161 6.55585 18.6684C7.64778 19.1207 8.8181 19.3535 10 19.3535C11.1819 19.3535 12.3522 19.1207 13.4442 18.6684C14.5361 18.2161 15.5282 17.5532 16.364 16.7175C17.1997 15.8817 17.8626 14.8896 18.3149 13.7977C18.7672 12.7057 19 11.5354 19 10.3535C19 7.96657 18.0518 5.67738 16.364 3.98955C14.6761 2.30173 12.3869 1.35352 10 1.35352C7.61305 1.35352 5.32387 2.30173 3.63604 3.98955C1.94821 5.67738 1 7.96657 1 10.3535Z" stroke="black" stroke-width="2" stroke-linecap="round" stroke-linejoin="round"/>
<path d="M10 5.35352V10.3535L13 13.3535" stroke="black" stroke-width="2" stroke-linecap="round" stroke-linejoin="round"/>
</svg>
