<svg width="24" height="25" viewBox="0 0 24 25" fill="none" xmlns="http://www.w3.org/2000/svg">
<path d="M19 19.0615H5V8.06152H19M16 1.06152V3.06152H8V1.06152H6V3.06152H5C3.89 3.06152 3 3.95152 3 5.06152V19.0615C3 19.592 3.21071 20.1007 3.58579 20.4757C3.96086 20.8508 4.46957 21.0615 5 21.0615H19C19.5304 21.0615 20.0391 20.8508 20.4142 20.4757C20.7893 20.1007 21 19.592 21 19.0615V5.06152C21 4.53109 20.7893 4.02238 20.4142 3.64731C20.0391 3.27224 19.5304 3.06152 19 3.06152H18V1.06152M17 12.0615H12V17.0615H17V12.0615Z" fill="#53565A"/>
</svg>
