<svg width="24" height="25" viewBox="0 0 24 25" fill="none" xmlns="http://www.w3.org/2000/svg">
<path d="M12 13.0615C13.6569 13.0615 15 11.7184 15 10.0615C15 8.40467 13.6569 7.06152 12 7.06152C10.3431 7.06152 9 8.40467 9 10.0615C9 11.7184 10.3431 13.0615 12 13.0615Z" stroke="#53565A" stroke-width="2" stroke-linecap="round" stroke-linejoin="round"/>
<path d="M12 2.06152C9.87827 2.06152 7.84344 2.90438 6.34315 4.40467C4.84285 5.90496 4 7.93979 4 10.0615C4 11.9535 4.402 13.1915 5.5 14.5615L12 22.0615L18.5 14.5615C19.598 13.1915 20 11.9535 20 10.0615C20 7.93979 19.1571 5.90496 17.6569 4.40467C16.1566 2.90438 14.1217 2.06152 12 2.06152Z" stroke="#53565A" stroke-width="2" stroke-linecap="round" stroke-linejoin="round"/>
</svg>
